<svg width="1200" height="630" viewBox="0 0 1200 630" fill="none" xmlns="http://www.w3.org/2000/svg">
  <!-- Background -->
  <rect width="1200" height="630" fill="#07090f"/>

  <!-- Ambient glow blobs -->
  <ellipse cx="220" cy="240" rx="380" ry="320" fill="#6366f1" fill-opacity="0.13"/>
  <ellipse cx="1050" cy="460" rx="320" ry="280" fill="#8b5cf6" fill-opacity="0.10"/>
  <ellipse cx="920" cy="80" rx="200" ry="180" fill="#22d3ee" fill-opacity="0.07"/>

  <!-- Subtle grid dots -->
  <pattern id="dots" x="0" y="0" width="40" height="40" patternUnits="userSpaceOnUse">
    <circle cx="20" cy="20" r="1" fill="white" fill-opacity="0.04"/>
  </pattern>
  <rect width="1200" height="630" fill="url(#dots)"/>

  <!-- Logo -->
  <text x="600" y="258" font-family="Space Grotesk, Arial, sans-serif" font-size="112" font-weight="700" fill="white" text-anchor="middle" letter-spacing="-3">brolyu</text>

  <!-- Accent underline bar -->
  <rect x="467" y="272" width="266" height="5" rx="3" fill="url(#accent-grad)"/>
  <defs>
    <linearGradient id="accent-grad" x1="467" y1="0" x2="733" y2="0" gradientUnits="userSpaceOnUse">
      <stop offset="0%" stop-color="#6366f1"/>
      <stop offset="100%" stop-color="#8b5cf6"/>
    </linearGradient>
  </defs>

  <!-- Tagline -->
  <text x="600" y="336" font-family="DM Sans, Arial, sans-serif" font-size="26" fill="rgba(255,255,255,0.50)" text-anchor="middle" letter-spacing="0.3">Connect · Learn Languages · Play Games · Make Friends</text>

  <!-- Feature pills -->
  <!-- Friends pill -->
  <rect x="168" y="398" width="190" height="56" rx="28" fill="#6366f1" fill-opacity="0.18"/>
  <rect x="168" y="398" width="190" height="56" rx="28" stroke="#6366f1" stroke-opacity="0.3" stroke-width="1"/>
  <text x="263" y="434" font-family="DM Sans, Arial, sans-serif" font-size="22" font-weight="500" fill="#818cf8" text-anchor="middle">Friends</text>

  <!-- Languages pill -->
  <rect x="382" y="398" width="210" height="56" rx="28" fill="#06b6d4" fill-opacity="0.14"/>
  <rect x="382" y="398" width="210" height="56" rx="28" stroke="#06b6d4" stroke-opacity="0.3" stroke-width="1"/>
  <text x="487" y="434" font-family="DM Sans, Arial, sans-serif" font-size="22" font-weight="500" fill="#22d3ee" text-anchor="middle">Languages</text>

  <!-- Study pill -->
  <rect x="616" y="398" width="180" height="56" rx="28" fill="#10b981" fill-opacity="0.14"/>
  <rect x="616" y="398" width="180" height="56" rx="28" stroke="#10b981" stroke-opacity="0.3" stroke-width="1"/>
  <text x="706" y="434" font-family="DM Sans, Arial, sans-serif" font-size="22" font-weight="500" fill="#34d399" text-anchor="middle">Study</text>

  <!-- Games pill -->
  <rect x="820" y="398" width="172" height="56" rx="28" fill="#ec4899" fill-opacity="0.14"/>
  <rect x="820" y="398" width="172" height="56" rx="28" stroke="#ec4899" stroke-opacity="0.3" stroke-width="1"/>
  <text x="906" y="434" font-family="DM Sans, Arial, sans-serif" font-size="22" font-weight="500" fill="#f472b6" text-anchor="middle">Games</text>

  <!-- Footer domain -->
  <text x="600" y="572" font-family="DM Sans, Arial, sans-serif" font-size="20" fill="rgba(255,255,255,0.25)" text-anchor="middle">brolyu.com</text>
</svg>
